<?xml version="1.0" standalone="no"?><!DOCTYPE svg PUBLIC "-//W3C//DTD SVG 1.1//EN" "http://www.w3.org/Graphics/SVG/1.1/DTD/svg11.dtd"><svg t="1721786834162" class="icon" viewBox="0 0 1925 1024" version="1.1" xmlns="http://www.w3.org/2000/svg" p-id="876" xmlns:xlink="http://www.w3.org/1999/xlink" width="481.25" height="256"><path d="M1567.773625 253.706596v133.403258h-110.062807v-110.560034a110.326045 110.326045 0 0 0-110.062806-110.589283 110.326045 110.326045 0 0 0-110.062807 110.589283v110.560034h-232.790295C944.01614 119.162638 678.525813-48.549329 411.807042 12.521928 145.11752 73.593185-21.804733 340.341205 38.974037 608.288421c60.77877 267.976465 326.269097 435.688432 592.987868 374.617175 185.582915-42.498341 330.539405-188.127551 372.833005-374.617175H1897.991294v-221.178567h-110.062806V253.706596a110.326045 110.326045 0 0 0-110.062807-110.589284A110.355294 110.355294 0 0 0 1567.773625 253.706596zM522.162336 774.157721c-151.976174 0-275.171641-123.751192-275.171641-276.458584 0-152.678143 123.195467-276.458584 275.171641-276.458583s275.171641 123.780441 275.171641 276.458583c0 152.707392-123.195467 276.458584-275.171641 276.458584z" fill="#11b566" p-id="877"></path></svg>