<svg xmlns="http://www.w3.org/2000/svg" xmlns:xlink="http://www.w3.org/1999/xlink" width="600" height="600" viewBox="0 0 600 600" fill="none">
<path     fill="#FFFFFF"  d="M0 600L600 600L600 0L0 0L0 600Z">
</path>
<g  clip-path="url(#clip-path-JXbHLOWbjf57Zt-sm9kXP)">
<path d="M364.573 450.943L331.223 450.943L331.223 423.428L358.863 423.428C359.314 423.428 359.765 423.418 360.216 423.398C360.667 423.376 361.117 423.343 361.566 423.303C362.016 423.258 362.464 423.206 362.91 423.141C363.357 423.073 363.802 422.996 364.245 422.911C364.688 422.823 365.128 422.726 365.566 422.618C366.005 422.508 366.44 422.391 366.872 422.261C367.304 422.131 367.733 421.988 368.158 421.838C368.584 421.686 369.005 421.523 369.423 421.353C369.84 421.181 370.253 420.998 370.661 420.808C371.07 420.616 371.474 420.413 371.872 420.203C372.271 419.991 372.664 419.768 373.052 419.538C373.44 419.306 373.821 419.066 374.197 418.816C374.573 418.566 374.943 418.306 375.306 418.041C375.669 417.771 376.025 417.496 376.375 417.211C376.725 416.923 377.067 416.628 377.402 416.328C377.738 416.023 378.065 415.713 378.385 415.396C378.705 415.076 379.017 414.751 379.321 414.418C379.625 414.083 379.92 413.743 380.208 413.396C380.495 413.046 380.773 412.691 381.043 412.331C381.312 411.968 381.573 411.601 381.825 411.226C382.077 410.851 382.319 410.468 382.552 410.083C382.785 409.696 383.008 409.303 383.222 408.906C383.436 408.508 383.64 408.106 383.833 407.698C384.028 407.291 384.212 406.878 384.385 406.463C384.559 406.046 384.722 405.626 384.876 405.201C385.029 404.776 385.171 404.346 385.303 403.916C385.435 403.483 385.557 403.048 385.667 402.613C385.778 402.173 385.878 401.733 385.967 401.293C386.056 400.848 386.135 400.403 386.202 399.958C386.269 399.513 386.325 399.066 386.371 398.616C386.416 398.166 386.45 397.716 386.474 397.266C386.497 396.816 386.509 396.363 386.51 395.913C386.509 395.461 386.497 395.011 386.474 394.561C386.45 394.108 386.416 393.658 386.371 393.211C386.325 392.761 386.269 392.311 386.202 391.866C386.135 391.418 386.056 390.973 385.967 390.533C385.878 390.088 385.778 389.648 385.667 389.213C385.557 388.773 385.435 388.338 385.303 387.908C385.171 387.476 385.029 387.048 384.876 386.626C384.722 386.201 384.559 385.778 384.385 385.363C384.212 384.946 384.028 384.533 383.833 384.126C383.64 383.718 383.436 383.316 383.222 382.918C383.008 382.521 382.785 382.128 382.552 381.743C382.319 381.356 382.077 380.976 381.825 380.601C381.573 380.226 381.312 379.856 381.043 379.496C380.773 379.133 380.495 378.778 380.208 378.431C379.92 378.081 379.625 377.741 379.321 377.408C379.017 377.073 378.705 376.746 378.385 376.428C378.065 376.108 377.738 375.798 377.402 375.498C377.067 375.193 376.725 374.901 376.375 374.616C376.025 374.331 375.669 374.053 375.306 373.786C374.943 373.516 374.573 373.258 374.197 373.008C373.821 372.758 373.44 372.518 373.052 372.288C372.664 372.056 372.271 371.833 371.872 371.623C371.474 371.411 371.07 371.208 370.661 371.018C370.253 370.823 369.84 370.641 369.423 370.471C369.005 370.298 368.584 370.138 368.158 369.988C367.733 369.836 367.304 369.696 366.872 369.566C366.44 369.436 366.005 369.316 365.566 369.208C365.128 369.098 364.688 369.001 364.245 368.913C363.802 368.826 363.357 368.751 362.91 368.686C362.464 368.621 362.016 368.566 361.566 368.523C361.117 368.478 360.667 368.448 360.216 368.428C359.765 368.406 359.314 368.396 358.863 368.398L331.223 368.398L331.223 310.2C398.209 295.004 440.137 228.631 424.87 161.952C409.602 95.2795 342.915 53.5488 275.928 68.7435C208.934 83.9382 167.005 150.311 182.274 216.99C192.898 263.386 229.306 299.625 275.928 310.197L275.928 533.498L331.223 533.498L331.223 505.983L364.573 505.983C365.025 505.983 365.476 505.973 365.927 505.953C366.378 505.931 366.828 505.898 367.277 505.856C367.727 505.811 368.174 505.758 368.621 505.693C369.068 505.628 369.513 505.551 369.956 505.466C370.398 505.378 370.839 505.281 371.277 505.173C371.715 505.063 372.151 504.943 372.583 504.813C373.015 504.683 373.444 504.543 373.869 504.393C374.295 504.241 374.716 504.078 375.133 503.908C375.551 503.736 375.964 503.553 376.372 503.363C376.781 503.171 377.184 502.968 377.583 502.758C377.982 502.543 378.375 502.323 378.763 502.093C379.15 501.861 379.532 501.621 379.908 501.371C380.284 501.121 380.653 500.861 381.017 500.593C381.38 500.326 381.736 500.048 382.086 499.763C382.436 499.478 382.778 499.183 383.113 498.883C383.448 498.578 383.776 498.268 384.096 497.951C384.416 497.631 384.728 497.306 385.032 496.973C385.336 496.638 385.631 496.298 385.918 495.951C386.206 495.601 386.484 495.246 386.754 494.886C387.023 494.521 387.284 494.153 387.536 493.781C387.788 493.406 388.03 493.023 388.263 492.638C388.496 492.251 388.719 491.858 388.933 491.461C389.147 491.063 389.351 490.661 389.545 490.253C389.739 489.846 389.922 489.433 390.096 489.018C390.27 488.601 390.433 488.181 390.586 487.756C390.739 487.331 390.882 486.901 391.014 486.471C391.146 486.038 391.267 485.603 391.378 485.168C391.489 484.728 391.589 484.288 391.678 483.846C391.767 483.403 391.845 482.958 391.913 482.513C391.98 482.066 392.036 481.618 392.082 481.171C392.127 480.721 392.161 480.271 392.184 479.821C392.208 479.368 392.22 478.918 392.221 478.468C392.22 478.016 392.208 477.563 392.184 477.113C392.161 476.663 392.127 476.213 392.082 475.763C392.036 475.313 391.98 474.866 391.913 474.421C391.845 473.973 391.767 473.528 391.678 473.088C391.589 472.643 391.489 472.203 391.378 471.766C391.268 471.328 391.146 470.893 391.014 470.463C390.882 470.031 390.74 469.603 390.586 469.178C390.433 468.753 390.27 468.331 390.096 467.916C389.923 467.498 389.739 467.086 389.545 466.681C389.351 466.271 389.147 465.868 388.933 465.471C388.719 465.073 388.496 464.681 388.263 464.296C388.03 463.908 387.788 463.528 387.536 463.153C387.284 462.778 387.024 462.408 386.754 462.048C386.484 461.686 386.206 461.331 385.919 460.983C385.631 460.633 385.336 460.293 385.032 459.958C384.728 459.623 384.416 459.298 384.096 458.981C383.776 458.661 383.449 458.351 383.114 458.048C382.778 457.746 382.436 457.453 382.086 457.168C381.737 456.881 381.381 456.603 381.017 456.336C380.654 456.068 380.284 455.811 379.909 455.561C379.533 455.311 379.151 455.068 378.763 454.838C378.375 454.606 377.982 454.383 377.583 454.173C377.185 453.961 376.782 453.758 376.373 453.568C375.964 453.373 375.551 453.191 375.134 453.021C374.717 452.848 374.295 452.686 373.87 452.536C373.444 452.386 373.016 452.246 372.583 452.116C372.151 451.986 371.716 451.866 371.278 451.756C370.839 451.646 370.399 451.548 369.956 451.463C369.513 451.376 369.068 451.298 368.622 451.233C368.175 451.168 367.727 451.113 367.277 451.071C366.828 451.026 366.378 450.996 365.927 450.976C365.476 450.953 365.025 450.943 364.573 450.943ZM234.461 189.54C234.461 151.546 265.398 120.748 303.575 120.748C341.745 120.748 372.69 151.546 372.69 189.54C372.69 227.535 341.745 258.333 303.575 258.333C265.398 258.333 234.461 227.535 234.461 189.54Z"   fill="#11B566" >
</path>
</g>
<defs>
<clipPath id="clip-path-JXbHLOWbjf57Zt-sm9kXP">
<path d="M172 59L172 540.25L428 540.25L428 59L172 59Z" fill="white"/>
</clipPath>
</defs>
</svg>
